:SAMPLES-PER-SECOND 30
:FULLY-SPECIFIED
:DEGREES
16
root  -64.738 19.0476 0.702758 -119.865 74.0827 -163.826
RightUpLeg  -54.6925 2.14636 17.8391
RightLeg  117.215 5.57545 11.0807
RightFoot  -11.45 0.115258 -8.05039
RightToes  -4.65663e-010 -1.59028e-015 9.93923e-017
Spine  50.7089 -7.37007 17.3581
Spine1  -17.6538 1.14577 -7.51806
HEad  -58.6782 -4.88683 10.4904
LeftShoulder1  9.93923e-017 0 1.22299e-017
LeftArm  2.35241 -31.1043 -99.1584
LeftForeArm  32.0866 -0.901774 -0.558593
LeftHand  -4.01339 -0.7695 48.827
RightShoulder  1.98785e-016 -4.96962e-017 1.55301e-017
RightArm  -5.31259 37.7894 68.3132
RightForeArm  11.9542 14.1685 -15.0205
RightHand  4.87775 -17.0492 -32.686
LeftUpLeg  -13.6607 -13.3802 16.3131
LeftLeg  64.4032 -12.9273 -2.04192
LeftFoot  23.331 1.00454 -2.80438
LeftToes  3.34876e-009 -9.68256e-011 -6.12847e-011
17
root  -64.046 19.3352 1.0293 -125.556 75.2833 -170.03
RightUpLeg  -52.623 2.30032 16.7339
RightLeg  114.684 6.226 10.884
RightFoot  -12.9055 0.0126139 -7.17908
RightToes  -4.65663e-010 -1.59028e-015 9.93923e-017
Spine  51.3925 -7.47496 16.8289
Spine1  -18.2228 0.836708 -9.53707
HEad  -59.109 -6.49481 12.0029
LeftShoulder1  9.93923e-017 0 1.22299e-017
LeftArm  3.55203 -30.3974 -99.5418
LeftForeArm  32.5852 -1.08175 -1.09173
LeftHand  -4.10151 -0.795733 49.5625
RightShoulder  1.98785e-016 -4.96962e-017 1.55301e-017
RightArm  -9.41306 43.6822 65.7236
RightForeArm  11.0165 8.36917 -11.7484
RightHand  4.15472 -16.2059 -28.8531
LeftUpLeg  -17.7097 -11.7372 15.3428
LeftLeg  69.5091 -13.2422 -3.03158
LeftFoot  18.9231 1.05496 -3.42441
LeftToes  3.34876e-009 -9.68256e-011 -6.12847e-011
18
root  -63.2571 19.6101 1.41619 -133.255 76.7219 -177.899
RightUpLeg  -50.1228 2.39867 15.5344
RightLeg  111.946 7.21635 9.86042
RightFoot  -14.1454 -0.0617871 -6.70038
RightToes  -4.65663e-010 -1.59028e-015 9.93923e-017
Spine  52.3553 -7.07682 15.0191
Spine1  -18.6329 0.457918 -10.8477
HEad  -59.6297 -7.26236 13.1502
LeftShoulder1  9.93923e-017 0 1.22299e-017
LeftArm  4.00304 -29.4623 -99.204
LeftForeArm  32.8912 -1.21515 -1.49464
LeftHand  -4.18992 -0.820755 50.2978
RightShoulder  1.98785e-016 -4.96962e-017 1.55301e-017
RightArm  -7.59716 48.3256 65.5909
RightForeArm  4.90625 2.57345 -9.34471
RightHand  3.33585 -15.102 -24.0264
LeftUpLeg  -21.9344 -9.75144 14.0904
LeftLeg  75.8679 -13.3752 -4.20559
LeftFoot  12.0277 1.24903 -5.42612
LeftToes  3.34876e-009 -9.68256e-011 -6.12847e-011
19
root  -62.4369 19.8446 1.84446 -142.169 77.7424 173.021
RightUpLeg  -47.6282 2.52447 14.6085
RightLeg  109.013 8.19709 8.56745
RightFoot  -14.7136 -0.103558 -7.25473
RightToes  -4.65663e-010 -1.59028e-015 9.93923e-017
Spine  52.8591 -6.87624 13.1281
Spine1  -18.1523 -0.151627 -12.0854
HEad  -60.7226 -7.06845 14.3063
LeftShoulder1  9.93923e-017 0 1.22299e-017
LeftArm  4.30509 -29.0224 -98.2836
LeftForeArm  33.1116 -1.28785 -1.70838
LeftHand  -4.27251 -0.846352 50.9605
RightShoulder  1.98785e-016 -4.96962e-017 1.55301e-017
RightArm  -4.16913 51.6961 67.5367
RightForeArm  -0.318273 -2.21969 -6.65309
RightHand  3.15943 -15.0261 -22.2744
LeftUpLeg  -26.7714 -8.13401 13.0807
LeftLeg  82.8323 -13.2338 -5.42502
LeftFoot  5.4858 1.11508 -6.61973
LeftToes  3.34876e-009 -9.68256e-011 -6.12847e-011
20
root  -61.5818 20.0168 2.30231 -151.362 78.561 163.376
RightUpLeg  -45.4611 3.06958 13.785
RightLeg  106.083 9.00974 7.28458
RightFoot  -14.7052 -0.115738 -8.19772
RightToes  -4.65663e-010 -1.59028e-015 9.93923e-017
Spine  52.6079 -6.58116 11.256
Spine1  -16.7417 -0.640532 -13.3937
HEad  -62.2234 -6.40214 15.4875
LeftShoulder1  9.93923e-017 0 1.22299e-017
LeftArm  4.56726 -29.1248 -97.2289
LeftForeArm  33.6667 -1.33929 -1.81407
LeftHand  -4.32326 -0.864813 51.3463
RightShoulder  1.98785e-016 -4.96962e-017 1.55301e-017
RightArm  -2.11443 52.7948 69.5507
RightForeArm  -3.03632 -4.50769 -5.15867
RightHand  3.85 -16.3176 -25.3094
LeftUpLeg  -32.3941 -6.85499 12.2135
LeftLeg  90.1477 -12.7954 -6.65015
LeftFoot  -0.829454 0.682339 -6.15658
LeftToes  3.34876e-009 -9.68256e-011 -6.12847e-011
21
root  -60.6912 20.1227 2.78443 -162.554 79.5339 151.798
RightUpLeg  -43.2017 4.09613 12.6852
RightLeg  103.216 9.69245 5.88087
RightFoot  -14.6389 -0.121396 -8.9593
RightToes  -4.65663e-010 -1.59028e-015 9.93923e-017
Spine  52.0282 -5.77842 8.66074
Spine1  -14.7267 -0.875423 -14.5034
HEad  -63.4426 -5.6177 16.4784
LeftShoulder1  9.93923e-017 0 1.22299e-017
LeftArm  4.96448 -29.1164 -95.7923
LeftForeArm  34.2962 -1.41804 -2.00062
LeftHand  -4.29213 -0.853494 51.1136
RightShoulder  1.98785e-016 -4.96962e-017 1.55301e-017
RightArm  -3.0624 51.8152 70.4094
RightForeArm  -3.78037 -4.19844 -5.56046
RightHand  4.83745 -17.6844 -30.0332
LeftUpLeg  -38.3134 -5.6638 11.1246
LeftLeg  97.6377 -11.9442 -8.44198
LeftFoot  -7.55352 0.272306 -5.75756
LeftToes  3.34876e-009 -9.68256e-011 -6.12847e-011
22
root  -59.8422 20.1675 3.23334 -175.071 80.4495 139.554
RightUpLeg  -40.2244 5.27086 11.6414
RightLeg  100.358 10.219 4.49749
RightFoot  -14.8304 -0.145808 -9.57096
RightToes  -4.65663e-010 -1.59028e-015 9.93923e-017
Spine  51.4764 -4.80481 5.66902
Spine1  -12.232 -1.01143 -15.322
HEad  -64.0543 -4.90502 17.2681
LeftShoulder1  9.93923e-017 0 1.22299e-017
LeftArm  6.01024 -28.5813 -93.3738
LeftForeArm  33.8269 -1.31357 -2.62704
LeftHand  -4.13718 -0.784966 49.9999
RightShoulder  1.98785e-016 -4.96962e-017 1.55301e-017
RightArm  -4.67791 50.6597 71.4634
RightForeArm  -4.2917 -2.91193 -6.5951
RightHand  5.33733 -18.1542 -32.7313
LeftUpLeg  -44.1055 -4.66062 10.1564
LeftLeg  105.065 -10.394 -10.9665
LeftFoot  -13.1287 -0.0252595 -5.56626
LeftToes  3.34876e-009 -9.68256e-011 -6.12847e-011
23
root  -59.0874 20.1779 3.58837 172.933 81.3361 129.162
RightUpLeg  -35.8032 6.39542 11.032
RightLeg  97.5494 10.5125 3.71427
RightFoot  -15.2066 -0.190714 -10.2871
RightToes  -4.65663e-010 -1.59028e-015 9.93923e-017
Spine  51.9298 -4.19749 3.22093
Spine1  -9.86955 -1.18328 -16.302
HEad  -64.3401 -4.62091 18.4137
LeftShoulder1  9.93923e-017 0 1.22299e-017
LeftArm  8.34503 -27.4588 -90.0516
LeftForeArm  32.3946 -4.25903 -2.68035
LeftHand  -3.8851 -0.655236 48.2329
RightShoulder  1.98785e-016 -4.96962e-017 1.55301e-017
RightArm  -5.06468 50.4356 73.8322
RightForeArm  -4.83944 -2.88911 -6.68621
RightHand  5.44657 -18.1376 -33.6839
LeftUpLeg  -48.9894 -4.31716 9.75891
LeftLeg  112.137 -8.1865 -13.3612
LeftFoot  -16.0337 -0.155269 -4.85497
LeftToes  3.34876e-009 -9.68256e-011 -6.12847e-011
24
root  -58.3893 20.1807 3.89107 155.125 82.3855 114.51
RightUpLeg  -29.6866 7.90598 10.3593
RightLeg  94.9419 10.6471 3.60738
RightFoot  -15.5692 -0.246087 -11.3214
RightToes  -4.65663e-010 -1.59028e-015 9.93923e-017
Spine  54.3412 -3.26584 0.627505
Spine1  -8.50454 -1.21312 -17.4838
HEad  -64.7148 -4.83428 20.1841
LeftShoulder1  9.93923e-017 0 1.22299e-017
LeftArm  14.1114 -25.8079 -86.6445
LeftForeArm  28.238 -9.73529 -1.35688
LeftHand  -3.62231 -0.521966 46.284
RightShoulder  1.98785e-016 -4.96962e-017 1.55301e-017
RightArm  -5.25726 50.1592 76.7807
RightForeArm  -4.19597 -3.70446 -6.21331
RightHand  5.68643 -18.2967 -35.0781
LeftUpLeg  -52.0729 -4.52391 9.43578
LeftLeg  118.467 -5.61111 -15.1917
LeftFoot  -17.8392 -0.264902 -5.46487
LeftToes  3.34876e-009 -9.68256e-011 -6.12847e-011
